<?xml version="1.0" encoding="UTF-8" standalone="no"?>
<svg width="100" height="100" viewBox="0 0 100 100" xmlns="http://www.w3.org/2000/svg">
  <style>
    .leaf { fill: #4CAF50; }
    .bin { fill: #388E3C; }
    .outline { fill: none; stroke: #388E3C; stroke-width: 3; }
  </style>
  <!-- Trash Bin -->
  <path class="bin" d="M35,30 L65,30 L60,85 L40,85 Z" />
  <path class="outline" d="M35,30 L65,30 L60,85 L40,85 Z" />
  <!-- Bin Lid -->
  <path class="bin" d="M30,30 L70,30 L70,25 L30,25 Z" />
  <path class="outline" d="M30,30 L70,30 L70,25 L30,25 Z" />
  <!-- Leaf/Recycle Symbol -->
  <path class="leaf" d="M50,15 C60,15 65,25 65,35 C55,35 45,30 50,15 Z" />
  <path class="leaf" d="M65,50 C65,60 55,65 45,65 C45,55 50,45 65,50 Z" />
  <path class="leaf" d="M35,65 C25,65 20,55 20,45 C30,45 40,50 35,65 Z" />
  <!-- Handle -->
  <path class="outline" d="M45,25 L45,20 L55,20 L55,25" />
</svg>
